<svg width="240" height="240" viewBox="0 0 240 240" fill="none" xmlns="http://www.w3.org/2000/svg">
<path d="M131.828 125.371C131.828 103.821 114.359 86.3522 92.8094 86.3522C71.26 86.3522 53.7909 103.821 53.7909 125.371C53.7909 146.92 71.26 164.389 92.8094 164.389C114.359 164.389 131.828 146.92 131.828 125.371Z" fill="#FCB24C"/>
<path d="M91.863 54.1249C91.863 54.5222 91.586 54.8628 91.1986 54.9505C90.1301 55.193 88.8968 55.31 88.9392 55.8487L88.9424 55.8876C88.9951 56.5806 89.6733 57.0489 90.3405 56.853C90.9808 56.6654 91.6333 57.2211 91.4868 57.872C91.3249 58.5891 90.7032 59.0957 89.6357 59.3202C87.5886 59.7511 85.3613 58.103 85.0349 56.0225C84.5142 52.7065 87.0296 49.624 91.0136 48.6512C91.445 48.5456 91.863 48.8774 91.863 49.3214V54.1249Z" fill="white"/>
<path d="M168.924 79.0972H114.119C109.919 79.0972 106.513 75.6918 106.513 71.491V7.62867C106.513 3.08028 110.48 -0.462557 114.997 0.0713749C116.609 0.261881 118.213 0.505719 119.792 0.861674C150.986 7.89306 172.353 26.3831 183.301 56.4696C183.631 57.3756 183.916 58.2905 184.163 59.2141C186.847 69.2448 179.307 79.0972 168.924 79.0972Z" fill="white"/>
<path d="M147.267 81.0521H177.163C182.074 81.0521 185.935 85.2435 185.549 90.1402C184.703 100.872 182.498 111.353 178.987 121.603C173.296 138.22 164.895 153.022 153.684 166.092C148.586 172.035 138.857 168.482 138.857 160.652V89.462C138.857 84.8175 142.623 81.0521 147.267 81.0521Z" fill="white"/>
<path d="M101.785 7.36889V39.2779C101.785 43.3364 98.4945 46.6267 94.4357 46.6267H62.9469C58.174 46.6267 54.6533 42.1455 55.8085 37.5145C59.9884 20.7557 77.1954 3.52085 93.0023 0.159201C97.5352 -0.804897 101.785 2.73473 101.785 7.36889Z" fill="white"/>
<path d="M59.898 49.7991H77.3041C79.6705 49.7991 81.5887 51.7177 81.5887 54.0838V71.5551C81.5887 74.3247 78.9927 76.399 76.306 75.7244C67.2754 73.4582 58.4771 64.7084 55.7705 55.248C54.9892 52.5164 57.0574 49.7991 59.898 49.7991Z" fill="white"/>
<path d="M89.2301 75.9392C88.2233 76.2406 87.2094 75.4136 87.2055 74.2854V74.2655C87.1981 70.3924 87.2004 66.5189 87.201 62.5019C87.201 61.5314 87.9296 60.7418 88.8285 60.7418H99.6267C100.649 60.7418 101.407 61.745 101.228 62.8325C100.305 68.4439 95.1721 74.1614 89.2301 75.9392Z" fill="white"/>
<path d="M102.574 56.1176C102.716 56.7132 102.325 57.3127 101.79 57.3153H101.781C99.9453 57.3198 98.1099 57.3188 96.2062 57.3185C95.7464 57.3185 95.3719 56.8873 95.3719 56.356L95.3712 49.9684C95.3712 49.3635 95.8467 48.9153 96.362 49.021C99.021 49.5665 101.731 52.6027 102.574 56.1176Z" fill="white"/>
<path d="M90.4562 54.2047C90.4562 54.6021 90.1793 54.9427 89.7919 55.0304C88.7234 55.2729 87.49 55.3899 87.5325 55.9286L87.5357 55.9675C87.5883 56.6604 88.2668 57.1288 88.9338 56.9329C89.574 56.7453 90.2265 57.301 90.08 57.9516C89.9181 58.669 89.2965 59.1756 88.2289 59.4001C86.1819 59.831 83.9546 58.1829 83.6282 56.1024C83.1074 52.7864 85.6229 49.7039 89.6068 48.7311C90.0383 48.6254 90.4562 48.9573 90.4562 49.4013V54.2047Z" fill="#FCB24C"/>
<path d="M167.517 79.1771H112.712C108.511 79.1771 105.106 75.7718 105.106 71.5707V7.70862C105.106 3.15991 109.073 -0.382608 113.59 0.151324C115.202 0.34183 116.806 0.585665 118.385 0.941299C149.579 7.97301 170.946 26.4631 181.895 56.5496C182.224 57.4552 182.509 58.3705 182.757 59.2941C185.44 69.3248 177.9 79.1771 167.517 79.1771Z" fill="#FCB24C"/>
<path d="M145.86 81.132H175.756C180.667 81.132 184.528 85.3234 184.143 90.2204C183.296 100.952 181.091 111.433 177.58 121.683C171.889 138.3 163.488 153.102 152.277 166.171C147.179 172.115 137.45 168.562 137.45 160.732V89.5419C137.45 84.8974 141.216 81.132 145.86 81.132Z" fill="#FCB24C"/>
<path d="M100.378 7.44885V39.3579C100.378 43.4167 97.0875 46.7067 93.0287 46.7067H61.5399C56.767 46.7067 53.2463 42.2254 54.4015 37.5945C58.5814 20.8357 75.7884 3.60081 91.5953 0.239157C96.1282 -0.724941 100.378 2.81469 100.378 7.44885Z" fill="#FCB24C"/>
<path d="M58.4913 49.879H75.8974C78.2638 49.879 80.1821 51.7975 80.1821 54.1636V71.6346C80.1821 74.4045 77.586 76.4789 74.8993 75.8042C65.8687 73.5381 57.0704 64.7883 54.3641 55.3278C53.5825 52.5962 55.6507 49.879 58.4913 49.879Z" fill="#FCB24C"/>
<path d="M87.8234 76.0191C86.8165 76.3205 85.8026 75.4935 85.7988 74.3653V74.3457C85.7914 70.4723 85.7936 66.5988 85.7943 62.5818C85.7943 61.6113 86.5229 60.8216 87.4218 60.8216H98.2199C99.2422 60.8216 100 61.8249 99.8211 62.9124C98.8981 68.5238 93.7654 74.2413 87.8234 76.0191Z" fill="#FCB24C"/>
<path d="M101.167 56.1975C101.309 56.7931 100.918 57.3926 100.383 57.3951H100.374C98.5383 57.3996 96.703 57.3987 94.7992 57.3983C94.3395 57.3983 93.9649 56.9672 93.9649 56.4358L93.9642 50.0483C93.9642 49.4433 94.4397 48.9952 94.955 49.1009C97.6141 49.6464 100.324 52.6826 101.167 56.1975Z" fill="#FCB24C"/>
<path d="M129.854 125.245C129.854 103.696 112.385 86.2268 90.836 86.2268C69.2866 86.2268 51.8175 103.696 51.8175 125.245C51.8175 146.795 69.2866 164.264 90.836 164.264C112.385 164.264 129.854 146.795 129.854 125.245Z" fill="white"/>
<path fill-rule="evenodd" clip-rule="evenodd" d="M90.8319 93.1991C96.4597 93.1991 101.051 97.7947 101.051 103.419C101.051 109.047 96.4597 113.635 90.8319 113.635C85.2005 113.635 80.6123 109.047 80.6123 103.419C80.6123 97.7947 85.2005 93.1991 90.8319 93.1991Z" fill="white"/>
<path fill-rule="evenodd" clip-rule="evenodd" d="M59.5644 115.925C61.3028 110.575 67.0835 107.626 72.4405 109.364C77.7914 111.106 80.7405 116.887 78.999 122.241C77.2565 127.591 71.4793 130.54 66.1252 128.799C60.7756 127.06 57.8261 121.279 59.5644 115.925Z" fill="white"/>
<path fill-rule="evenodd" clip-rule="evenodd" d="M71.5145 152.682C66.9626 149.373 65.9478 142.965 69.2532 138.409C72.5622 133.857 78.9739 132.842 83.5261 136.147C88.0786 139.456 89.0935 145.868 85.7881 150.42C82.4791 154.976 76.0671 155.991 71.5145 152.682Z" fill="white"/>
<path fill-rule="evenodd" clip-rule="evenodd" d="M110.167 152.671C105.615 155.984 99.199 154.965 95.8933 150.413C92.5878 145.861 93.5992 139.449 98.1524 136.14C102.708 132.834 109.12 133.849 112.426 138.402C115.735 142.958 114.719 149.366 110.167 152.671Z" fill="white"/>
<path fill-rule="evenodd" clip-rule="evenodd" d="M122.103 115.915C123.842 121.265 120.892 127.053 115.546 128.788C110.189 130.526 104.41 127.584 102.669 122.23C100.927 116.876 103.88 111.095 109.23 109.35C114.584 107.611 120.362 110.561 122.103 115.915Z" fill="white"/>
<path fill-rule="evenodd" clip-rule="evenodd" d="M91.6093 93.516C97.2371 93.516 101.829 98.1116 101.829 103.736C101.829 109.364 97.2371 113.952 91.6093 113.952C85.978 113.952 81.3898 109.364 81.3898 103.736C81.3898 98.1116 85.978 93.516 91.6093 93.516Z" fill="#FCB24C"/>
<path fill-rule="evenodd" clip-rule="evenodd" d="M60.3419 116.242C62.0802 110.892 67.861 107.943 73.218 109.681C78.5688 111.423 81.518 117.204 79.7764 122.558C78.0339 127.908 72.2567 130.857 66.9026 129.116C61.553 127.377 58.6036 121.596 60.3419 116.242Z" fill="#FCB24C"/>
<path fill-rule="evenodd" clip-rule="evenodd" d="M72.292 152.999C67.7401 149.69 66.7252 143.282 70.0307 138.726C73.3396 134.174 79.7513 133.159 84.3036 136.464C88.8561 139.773 89.871 146.185 86.5655 150.737C83.2566 155.293 76.8446 156.308 72.292 152.999Z" fill="#FCB24C"/>
<path fill-rule="evenodd" clip-rule="evenodd" d="M110.944 152.988C106.392 156.301 99.9764 155.282 96.6706 150.731C93.3652 146.178 94.3765 139.766 98.9297 136.457C103.485 133.151 109.897 134.166 113.203 138.719C116.512 143.275 115.497 149.683 110.944 152.988Z" fill="#FCB24C"/>
<path fill-rule="evenodd" clip-rule="evenodd" d="M122.881 116.232C124.619 121.582 121.67 127.37 116.323 129.105C110.966 130.843 105.188 127.901 103.446 122.547C101.704 117.193 104.657 111.412 110.007 109.667C115.361 107.928 121.139 110.878 122.881 116.232Z" fill="#FCB24C"/>
<path d="M187.11 192.378V221.013H187.285V221.189H197.194L197.224 202.665L187.11 192.378Z" fill="#FCB24C"/>
<path d="M179.464 184.602H168.23V221.189H178.139L178.256 192.283H187.016L179.464 184.602Z" fill="#FCB24C"/>
<path d="M1 184.546H30.0228V192.227H20.4072L20.3484 232.771L10.4983 240V192.227H1L1 184.546Z" fill="#FCB24C"/>
<path d="M34.1398 221.189V184.602H44.0487V199.084L53.1361 199.143V184.544H63.1038V184.602H63.1623L63.1038 184.778V205.006H63.045V213.215H63.1623L63.045 213.566V221.189H53.1361V206.765H44.0487V221.189H34.1398Z" fill="#FCB24C"/>
<path d="M67.735 184.602H96.7578L93.8848 192.459H77.7027V199.143H93.8848V206.824H77.7027V213.273L96.7578 213.215L93.9433 221.189H67.735V184.602Z" fill="#FCB24C"/>
<path d="M101.331 184.602H130.354L127.481 192.459H111.299V199.143H127.481V206.824H111.299V213.273L130.354 213.215L127.54 221.189H101.331V184.602Z" fill="#FCB24C"/>
<path d="M144.777 221.247H134.81V203.599L134.751 203.541L134.81 203.482V184.603L158.732 184.544C160.177 184.544 161.331 184.876 162.191 185.54C163.05 186.206 163.637 187.3 163.95 188.824V194.775V198.205V199.993V200.961C163.676 202.251 163.217 203.228 162.572 203.892C161.927 204.557 161.077 204.987 160.022 205.182V205.358H156.269L163.892 221.365H153.631L146.184 205.475V199.202H153.455V192.4H144.425L144.777 221.247Z" fill="#FCB24C"/>
<path d="M215.076 184.309H225.747L238.354 221.13H217.715V213.332H225.747L220.412 196.798L211.676 221.13H201.708L215.076 184.309Z" fill="#FCB24C"/>
<path d="M202.103 203.798L202.142 179.602H178.312L202.103 203.798Z" fill="white"/>
</svg>
